<svg xmlns="http://www.w3.org/2000/svg" width="63.847" height="63.847" viewBox="0 0 63.847 63.847"><defs><style>.a{fill:#4a7aff;}.b{fill:#0053bf;}.c{fill:#fff;}.d{fill:#dce1eb;}</style></defs><path class="a" d="M63.847,31.923A31.923,31.923,0,1,1,31.923,0,31.923,31.923,0,0,1,63.847,31.923Zm0,0"/><path class="b" d="M159.6,129.735a31.922,31.922,0,0,0,30.522-31.891c0-.124,0-.248,0-.372l-22.159-22.16-23.693,24.765,13.164,13.164-6.07,8.253Zm0,0" transform="translate(-126.272 -65.921)"/><path class="c" d="M167.951,71.654v7.229s-8.3-1.2-8.3,4.15v5.354h7.5l-.937,8.165h-6.559v21.284h-8.3V96.552l-7.095-.134V88.387h6.961V82.229s-.459-9.16,8.567-10.843A24.118,24.118,0,0,1,167.951,71.654Zm0,0" transform="translate(-126.269 -62.262)"/><path class="d" d="M265.448,78.883V71.654a24.118,24.118,0,0,0-8.165-.267,12.656,12.656,0,0,0-1.638.417v46.032h1.5V96.552h6.559l.937-8.165h-7.5V83.032C257.149,77.678,265.448,78.883,265.448,78.883Zm0,0" transform="translate(-223.765 -62.262)"/></svg>