<svg xmlns="http://www.w3.org/2000/svg" width="63.293" height="63.293" viewBox="0 0 63.293 63.293"><defs><style>.a{fill:#59c36a;}.b{fill:#00a66c;}.c{fill:#ffda2d;}.d{fill:#4086f4;}.e{fill:#4175df;}.f{fill:#ff641a;}.g{fill:#f03800;}</style></defs><g transform="translate(0 0)"><path class="a" d="M83.907,314.51A31.295,31.295,0,0,1,36.4,306.463l2.055-9.472,9.108-1.691a16.806,16.806,0,0,0,15.984,11.83,16.449,16.449,0,0,0,9.791-3.189l8.752,1.335Z" transform="translate(-31.9 -258.795)"/><path class="b" d="M276.36,375.769l-1.817-9.234-8.752-1.335A16.45,16.45,0,0,1,256,368.389v14.958A31.6,31.6,0,0,0,276.36,375.769Z" transform="translate(-224.354 -320.054)"/><g transform="translate(0 15.625)"><g transform="translate(0)"><path class="c" d="M14.958,142.421a17.283,17.283,0,0,0,.7,4.858L4.5,158.442a30.771,30.771,0,0,1,0-32.042l8.959,1.542,2.2,9.621a17.281,17.281,0,0,0-.7,4.858Z" transform="translate(0 -126.4)"/></g></g><path class="d" d="M274.5,203.417a31.6,31.6,0,0,1-11.286,24.069l-10.569-10.569a16.409,16.409,0,0,0,5.155-6.082H242.854A1.836,1.836,0,0,1,241,208.98V197.854A1.836,1.836,0,0,1,242.854,196h29.273a1.832,1.832,0,0,1,1.817,1.52A31.446,31.446,0,0,1,274.5,203.417Z" transform="translate(-211.208 -171.771)"/><path class="e" d="M270.946,210.834a16.411,16.411,0,0,1-5.155,6.082l10.569,10.569a31.343,31.343,0,0,0,10.73-29.965,1.832,1.832,0,0,0-1.817-1.52H256v14.834Z" transform="translate(-224.354 -171.771)"/><path class="f" d="M84.426,8.839a1.871,1.871,0,0,1-.519,1.372l-7.936,7.9a1.816,1.816,0,0,1-2.41.185,16.588,16.588,0,0,0-10.013-3.338,16.806,16.806,0,0,0-15.984,11.83L36.4,15.625A31.275,31.275,0,0,1,83.758,7.466a1.95,1.95,0,0,1,.668,1.372Z" transform="translate(-31.9 0)"/><path class="g" d="M266.013,18.3a1.816,1.816,0,0,0,2.41-.185l7.936-7.9a1.87,1.87,0,0,0,.519-1.372,1.95,1.95,0,0,0-.668-1.372A31.551,31.551,0,0,0,256,0V14.958A16.587,16.587,0,0,1,266.013,18.3Z" transform="translate(-224.354 0)"/></g></svg>