<svg xmlns="http://www.w3.org/2000/svg" enable-background="new 0 0 60 60" viewBox="0 0 60 60"><path d="M30,6c-10.2624016,0-18.6144142,8.3520117-18.6144142,18.6144142c0,10.0127945,17.1840229,28.3103905,17.9136333,29.0783806
	C29.4816208,53.8848038,29.7407818,54,30,54s0.5183792-0.1151962,0.7007809-0.3072052
	c0.7296104-0.7679901,17.9136333-19.0655861,17.9136333-29.0783806C48.6144142,14.3520117,40.2624016,6,30,6z M30,32.5359383
	c-4.3729687,0-7.9307804-3.5535946-7.9307804-7.9214077c0-4.3729687,3.5578117-7.9307804,7.9307804-7.9307804
	c4.373436,0,7.9312515,3.5578117,7.9312515,7.9307804C37.9312515,28.9823437,34.373436,32.5359383,30,32.5359383z"/></svg>