<svg xmlns="http://www.w3.org/2000/svg" width="30.508" height="29.093" viewBox="0 0 30.508 29.093"><defs><style>.a{fill:#ffdc64;}.b{fill:#ffc850;}</style></defs><g transform="translate(0 0)"><path class="a" d="M29.788,22.387l-9.882-.916-3.925-9.115a.792.792,0,0,0-1.455,0L10.6,21.47.72,22.387A.792.792,0,0,0,.27,23.77l7.456,6.55L5.544,40a.792.792,0,0,0,1.177.855l8.533-5.067,8.533,5.067A.792.792,0,0,0,24.964,40L22.782,30.32l7.456-6.55A.792.792,0,0,0,29.788,22.387Z" transform="translate(0 -11.877)"/><path class="b" d="M15.981,12.355a.792.792,0,0,0-1.455,0L10.6,21.47.72,22.387A.792.792,0,0,0,.27,23.77l7.456,6.55L5.544,40a.792.792,0,0,0,1.177.855l1.9-1.131a34.925,34.925,0,0,1,9.3-22.863Z" transform="translate(0 -11.877)"/></g></svg>