<?xml version="1.0" encoding="utf-8"?>
<!-- Generator: Adobe Illustrator 21.0.0, SVG Export Plug-In . SVG Version: 6.00 Build 0)  -->
<svg version="1.1" id="Layer_3" xmlns="http://www.w3.org/2000/svg" xmlns:xlink="http://www.w3.org/1999/xlink" x="0px" y="0px"
	 width="64px" height="48.1px" viewBox="0 0 64 48.1" style="enable-background:new 0 0 64 48.1;" xml:space="preserve">
<style type="text/css">
	.st0{fill:#232323;}
</style>
<g>
	<path class="st0" d="M62.5,46c0.5-13.7,1-27.3,1.5-41c0-0.7-0.5-1-1-1c-0.2-0.1-0.4-0.2-0.6-0.2c-3.2-0.2-6.4-0.4-9.6-1
		c-3.1-0.6-5.9-1.8-9-2.5c0,0,0,0,0,0c-0.4-0.3-1-0.4-1.4-0.1c-6.4,1-12.4,4.6-19,4.3c-0.3,0-0.6,0.1-0.7,0.3c-0.2,0-0.4,0-0.6,0.1
		c-3.3,0-6.5-1.4-9.6-2.3C9.2,1.6,5.9,0.9,2.6,0.4C2.1,0.3,1.7,0.6,1.5,0.9C1.1,1,0.9,1.3,0.9,1.8C-0.5,15.8,0,29.9,0.5,44
		c0,0.7,0.7,1.1,1.2,1C1.8,45,2,45.1,2.1,45.1C9,45.8,15.8,48.6,22.8,48c0.1,0,0.1,0,0.2,0c0.6,0.1,1.3-0.2,1.4-1
		c0.3-3.4,0.1-6.8,0.1-10.3c-0.1-3.4-0.2-6.9-0.3-10.3c-0.2-6.6-0.4-13.3-0.5-19.9c6.4,0.2,12.2-3,18.4-4.2
		c0.7,13.1,0.5,26.2-0.4,39.3c-2.5,0.8-5.1,0.9-7.7,1.4c-2.9,0.6-5.8,1.5-8.6,2.6c-1.3,0.5-0.7,2.5,0.6,2c2.8-1.1,5.6-2,8.6-2.6
		c2.6-0.5,5.4-0.6,8-1.5c0.1,0.2,0.3,0.4,0.6,0.5c6.2,2,12.6,3.3,19.1,4C63.4,48.1,63.5,46.4,62.5,46z M2.6,43
		C2.1,29.5,1.7,16,2.9,2.6c3.2,0.5,6.3,1.2,9.4,2.1c3.1,0.9,6.1,2.2,9.3,2.3c0.2,6.5,0.4,13,0.5,19.5c0.1,3.4,0.2,6.9,0.3,10.3
		c0.1,3.1,0.2,6.1,0,9.2C15.7,46.4,9.2,43.8,2.6,43z M52.6,4.9c3.1,0.5,6.2,0.8,9.3,1c-0.5,13.3-1,26.6-1.5,39.8
		c-5.7-0.7-11.2-2-16.7-3.7c1-13.1,1.2-26.3,0.5-39.4c1.2,0.3,2.4,0.8,3.6,1.1C49.3,4.2,50.9,4.6,52.6,4.9z"/>
	<path class="st0" d="M18.2,27.6c-3.5-1.2-7.2-1.9-11-1.8c-1.4,0-1.4,2.1,0,2.1c3.6,0,7.1,0.5,10.4,1.7C18.9,30.1,19.5,28,18.2,27.6
		z"/>
	<path class="st0" d="M13.4,33.7c1.4,0,1.4-2.1,0-2.1c-2.1,0-4.1-0.4-6-1.2c-1.2-0.5-2.3,1.3-1.1,1.8C8.6,33.2,10.9,33.8,13.4,33.7z
		"/>
	<path class="st0" d="M17.1,37.7c-3.2-1-6.5-1.6-9.9-1.9c-1.4-0.1-1.3,2,0,2.1c3.2,0.3,6.3,0.9,9.3,1.8
		C17.8,40.1,18.4,38.1,17.1,37.7z"/>
	<path class="st0" d="M10.1,17.8c0.7,1.4,1.4,2.8,2.1,4.3c0.3,0.5,0.8,0.6,1.2,0.4c0.3,0,0.6-0.2,0.7-0.5c1.5-2.3,2.4-4.9,2.5-7.6
		c0-1.2,0-2.6-0.9-3.6c-0.8-0.9-2-1.1-3.2-1.3c-1.2-0.1-2.5,0.1-3.4,1.1c-0.8,0.9-1,2.1-0.8,3.3C8.8,15.3,9.5,16.6,10.1,17.8z
		 M10.7,12.6c0.3-1,1.2-1,2.1-0.9c0.7,0.1,1.6,0.2,1.8,1.1c0.2,0.9,0.1,1.9,0,2.8c-0.2,1.4-0.6,2.7-1.2,4c-0.7-1.4-1.5-2.9-2.1-4.3
		C10.9,14.4,10.5,13.5,10.7,12.6z"/>
	<path class="st0" d="M37.6,9.5c-3.7,0.8-7.4,1.5-11.1,2.2c-1.3,0.2-0.8,2.3,0.6,2c3.7-0.7,7.4-1.4,11.1-2.2
		C39.5,11.3,39,9.2,37.6,9.5z"/>
	<path class="st0" d="M28.2,18.5c3.3-0.8,6.6-1.5,10-2c1.3-0.2,0.8-2.3-0.6-2c-3.4,0.5-6.7,1.2-10,2C26.3,16.8,26.9,18.8,28.2,18.5z
		"/>
	<path class="st0" d="M37.7,19.7c-3.3,1.6-6.9,2.3-10.6,2.2c-1.4-0.1-1.4,2.1,0,2.1c4,0.2,8-0.7,11.6-2.5
		C40,20.9,38.9,19.1,37.7,19.7z"/>
	<path class="st0" d="M33.3,26.5c-2.6-0.4-4.5,1.5-4.3,4.1c0.1,1.3,0.6,2.5,1.1,3.7c0.6,1.5,1.3,2.9,2,4.4c0,0.1,0.1,0.1,0.1,0.2
		c0.3,0.7,1.4,1.1,2,0.2c1.5-2.2,2.6-4.7,3-7.3c0.2-1.3,0.2-2.5-0.7-3.5C35.7,27.4,34.5,26.7,33.3,26.5z M34.7,32.9
		c-0.3,1.2-0.8,2.3-1.4,3.4c-0.7-1.5-1.4-2.9-1.9-4.4c-0.3-0.8-0.6-1.9-0.1-2.7c0.4-0.7,1.3-0.8,2-0.5c0.7,0.2,1.6,0.8,1.8,1.5
		C35.3,31,34.9,32.1,34.7,32.9z"/>
	<path class="st0" d="M50.3,17.7c0.6,1.4,1.2,2.8,1.8,4.3c0.5,1.2,2.1,0.3,1.9-0.8c0,0,0,0,0,0c0.6-1.4,1.1-2.8,1.7-4.1
		c0.5-1.2,1-2.4,0.9-3.8c-0.2-2.5-2.3-3.8-4.7-3.6c-2.4,0.2-3.8,2.1-3.2,4.5C49.2,15.3,49.8,16.5,50.3,17.7z M50.8,12.7
		c0.1-0.8,0.8-1,1.5-1c0.7,0,1.6,0.1,2,0.7c0.4,0.7,0.2,1.6,0,2.3c-0.4,1.2-0.9,2.5-1.4,3.7c-0.5-1.1-0.9-2.1-1.4-3.2
		C51.2,14.5,50.7,13.5,50.8,12.7z"/>
	<path class="st0" d="M47.3,27.6c2.7,0.4,5.4,0.9,8,1.6c1.3,0.3,1.9-1.7,0.6-2c-2.8-0.7-5.7-1.3-8.5-1.7C46,25.3,46,27.4,47.3,27.6z
		"/>
	<path class="st0" d="M47.9,33.3C51.5,33.4,55,34,58.5,35c1.3,0.4,1.9-1.7,0.6-2c-3.6-1.1-7.4-1.7-11.2-1.8
		C46.5,31.1,46.5,33.3,47.9,33.3z"/>
	<path class="st0" d="M47.3,38c2,0,3.9,0.1,5.8,0.3c1.4,0.1,1.3-2,0-2.1c-1.9-0.2-3.9-0.3-5.8-0.3C45.9,35.9,45.9,38,47.3,38z"/>
	<path class="st0" d="M12,15.2c0.4,0.3,1,0.2,1.4,0c0.3-0.2,0.6-0.5,0.7-0.8c0.1-0.3,0.2-0.5,0.1-0.8c-0.1-0.2-0.3-0.5-0.5-0.6
		c-0.2-0.1-0.5-0.2-0.8-0.1c0,0-0.1,0-0.1,0.1c-0.2-0.1-0.4-0.1-0.6,0c-0.5,0.1-0.9,0.7-0.9,1.2C11.3,14.5,11.5,15,12,15.2z"/>
	<path class="st0" d="M33.1,29.4c-0.5-0.1-1.2,0.2-1.3,0.7c-0.1,0.2,0,0.5,0.1,0.7c-0.1,0.2-0.1,0.4,0,0.7c0.2,0.6,0.7,0.9,1.3,0.9
		c0.5,0,1-0.3,1.2-0.7c0.3-0.5,0.2-1.1-0.1-1.5C34,29.7,33.6,29.5,33.1,29.4z"/>
	<path class="st0" d="M52.1,15.2c0.2,0.1,0.4,0.1,0.7,0.1c0.4-0.1,0.7-0.3,0.8-0.6c0.1-0.1,0.1-0.2,0.2-0.4c0.1-0.3,0-0.4,0-0.7
		c0-0.2-0.3-0.5-0.5-0.6c-0.1,0-0.1-0.1-0.2-0.1c-0.1-0.1-0.3-0.2-0.4-0.2c-0.3-0.1-0.6,0-0.8,0.1c-0.2,0.1-0.4,0.4-0.5,0.6
		c-0.1,0.5-0.1,1,0.2,1.4C51.7,15,51.9,15.1,52.1,15.2z"/>
</g>
</svg>
