<svg xmlns="http://www.w3.org/2000/svg" enable-background="new 0 0 128 128" viewBox="0 0 128 128"><path fill-rule="evenodd" d="M55.596,85.293C52.307,100.539,48.51,116.011,37.034,128c-0.379-0.01-0.758-0.02-1.137-0.03c-0.382-2.61-0.855-5.21-1.131-7.831c-1.237-11.756,1.308-23.05,4.184-34.32c1.991-7.799,4.202-15.584,5.438-23.513c0.59-3.789-0.99-7.884-1.351-11.862c-0.638-7.014,0.816-13.452,6.157-18.455c3.516-3.294,7.741-4.328,12.259-2.425c4.442,1.872,6.15,5.844,5.777,10.261c-0.377,4.46-1.578,8.868-2.644,13.244c-0.913,3.746-2.179,7.405-3.228,11.119c-1.311,4.639-1.184,9.054,2.746,12.486c3.957,3.455,8.737,4.217,13.276,1.957c3.435-1.71,7.009-4.155,9.171-7.224c8.101-11.499,10.162-24.562,7.592-38.208c-1.325-7.035-5.64-12.434-12.014-15.897C68.283,9.78,47.25,12.475,36.709,26.129c-6.177,8-8.781,17.053-6.965,27.021c0.55,3.021,2.311,5.904,3.897,8.629c1.508,2.589,1.328,10.209-1.037,11.931c-0.94,0.684-3.011,0.611-4.176,0.057C20.929,70.2,17.231,63.672,15.485,55.929c-4.028-17.866,3.919-36.81,20.127-46.896c15.766-9.81,32.821-11.771,50.171-5.191c18.848,7.148,30.477,24.083,27.221,47.684c-1.652,11.981-5.581,23.055-14.727,31.459c-9.103,8.364-19.769,12.175-32.01,8.361C62.543,90.185,59.307,87.452,55.596,85.293z" clip-rule="evenodd"/></svg>