<svg xmlns="http://www.w3.org/2000/svg" width="82.198" height="53.285" viewBox="0 0 82.198 53.285"><defs><style>.a{fill:#fdbf00;}.b{fill:#ff9100;}.c{fill:#444;}.d{fill:#9bdd39;}.e{fill:#ff0059;}.f{fill:#292929;}.g{fill:#93bf00;}</style></defs><g transform="translate(0 0)"><path class="a" d="M179.178,29.031a31.378,31.378,0,0,0-15.838-4.113,31.724,31.724,0,0,0-15.692,4.135l-1.867,1.082,2.121.4a21.051,21.051,0,0,1,14.727,10.983l.711,1.378.711-1.378a21.036,21.036,0,0,1,14.86-11.009l2.109-.379Zm0,0" transform="translate(-122.377 -20.918)"/><path class="b" d="M270.991,29.031a31.378,31.378,0,0,0-15.839-4.113V42.892l.711-1.377a21.036,21.036,0,0,1,14.86-11.009l2.109-.379Zm0,0" transform="translate(-214.19 -20.918)"/><path class="c" d="M82.2,8.458l-5.08,8.084A21.67,21.67,0,0,1,44.526,45.059l-3.563,8.226L37.4,45.059A21.67,21.67,0,0,1,5.048,16.249L.152,8.458H18.118C23.747,3.221,32.391,0,40.963,0,49.9,0,58.35,3.146,63.817,8.458ZM77.126,30.14A16.881,16.881,0,1,0,60.244,47.021,16.9,16.9,0,0,0,77.126,30.14ZM56.393,8.8a30.466,30.466,0,0,0-15.43-4,31,31,0,0,0-15.29,4.027,21.751,21.751,0,0,1,15.29,11.4A21.754,21.754,0,0,1,56.393,8.8ZM38.563,30.14A16.881,16.881,0,1,0,21.681,47.021,16.9,16.9,0,0,0,38.563,30.14Zm0,0" transform="translate(0 0)"/><path class="c" d="M315.557,116.613a11.418,11.418,0,1,1-11.417,11.419A11.43,11.43,0,0,1,315.557,116.613Zm6.617,11.419a6.617,6.617,0,1,0-6.617,6.616A6.625,6.625,0,0,0,322.174,128.032Zm0,0" transform="translate(-255.313 -97.892)"/><path class="d" d="M362.8,172.059a2.517,2.517,0,1,1-2.517,2.517A2.521,2.521,0,0,1,362.8,172.059Zm0,0" transform="translate(-302.444 -144.436)"/><path class="c" d="M75.354,116.613a11.418,11.418,0,1,1-11.417,11.419A11.429,11.429,0,0,1,75.354,116.613Zm6.617,11.419a6.616,6.616,0,1,0-6.617,6.616A6.625,6.625,0,0,0,81.971,128.032Zm0,0" transform="translate(-53.673 -97.892)"/><path class="e" d="M121.892,172.059a2.517,2.517,0,1,0,2.517,2.517A2.52,2.52,0,0,0,121.892,172.059Zm0,0" transform="translate(-100.21 -144.436)"/><path class="f" d="M315.557,116.613a11.418,11.418,0,1,1-11.417,11.419A11.43,11.43,0,0,1,315.557,116.613Zm6.617,11.419a6.617,6.617,0,1,0-6.617,6.616A6.625,6.625,0,0,0,322.174,128.032Zm0,0" transform="translate(-255.313 -97.892)"/><path class="g" d="M362.8,172.059a2.517,2.517,0,1,1-2.517,2.517A2.521,2.521,0,0,1,362.8,172.059Zm0,0" transform="translate(-302.444 -144.436)"/><path class="c" d="M75.354,116.613a11.418,11.418,0,1,1-11.417,11.419A11.429,11.429,0,0,1,75.354,116.613Zm6.617,11.419a6.616,6.616,0,1,0-6.617,6.616A6.625,6.625,0,0,0,81.971,128.032Zm0,0" transform="translate(-53.673 -97.892)"/><path class="e" d="M121.892,172.059a2.517,2.517,0,1,0,2.517,2.517A2.52,2.52,0,0,0,121.892,172.059Zm0,0" transform="translate(-100.21 -144.436)"/><path class="f" d="M296.387,8.458h-18.38C272.539,3.146,264.088,0,255.152,0V4.8a30.466,30.466,0,0,1,15.43,4,21.753,21.753,0,0,0-15.43,11.43V53.285l3.563-8.226a21.67,21.67,0,0,0,32.591-28.517ZM291.315,30.14a16.881,16.881,0,1,1-16.881-16.881A16.9,16.9,0,0,1,291.315,30.14Zm0,0" transform="translate(-214.19 0)"/></g></svg>