<svg id="Layer_1" data-name="Layer 1" xmlns="http://www.w3.org/2000/svg" viewBox="0 0 5072.34 5072.34"><defs><style>.cls-1{fill:#ffffff;}</style></defs><title>logo</title><polygon class="cls-1" points="90.67 1477.48 959.11 2339.99 2415.39 1531.91 4017.25 2983.35 4981.66 2188.26 4056.77 3299.33 2414.87 1812.83 927.75 2637.95 90.67 1477.48"/><path class="cls-1" d="M1111,3605.29q33.95,0,40.23,72.14-1.24,13-3.77,13l-6.28-8.65h-1.25l-5,1.44,11.32,23.08v2.89h2.52l1.25-1.44h1.25l-1.25-7.22,3.77-4.32q5,6.14,5,11.54v1.44q0,8.65-8.8,8.66l2.52,5.77,8.8-2.89,1.25,1.45v1.44l-1.25,1.44v1.44l2.52,11.55h-1.27l-5,1.44h-3.78v1.44q0,2.9,13.84,7.22l25.14,152.93q-7.24,1.08-18.86,14.43h-1.25l-1.26-1.44h-1.26v2.88q6.6,10.11,12.57,10.1v-1.44q4.71-20.19,16.36-20.2h5l22.64,2.89q0-3.26-11.32-5.77v-1.45l2.51-4.33a19.23,19.23,0,0,0-7.55-10.1h-2.5c-1.69,6.74-3.36,10.1-5,10.1h-2.51l-2.52-2.88,28.93-125.52,1.25-11.55h1.26q6.9,7.23,11.32,7.22l1.25-1.45v-1.44l-10-11.54,18.86-80.8h2.51l7.54,2.89h1.26v-5.77h-7.54l-2.52-2.89v-1.44l2.52-2.89h6.28v-1.44l-6.28-7.21v-2.89l5-10.1,6.28,1.44H1277l1.27,1.45h1.25v-1.45q0-3.6-13.84-5.77v-2.88q0-2.88,11.32-2.89v-1.44l-8.8-2.89q0-7.2,27.66-15.87,10.07,1.45,10.07,10.1l8.8-8.66h2.52l1.25,1.45h1.25l-1.25,1.44v4.33c3.34,0,5,1,5,2.88l-2.52,2.89-6.28-4.33h-3.78l-1.25,4.33,15.08,4.33,1.27-1.44,1.25-4.33h1.25q10.7,0,23.89,39l12.59,69.26h-1.27l-7.54-1.45-22.63,2.89v1.44q12.57,5.78,21.37,5.77l13.84-4.32,36.46,161.59q10.05,0,16.35-80.8l39-174.58h2.52q0,5.78,11.31,5.77,6.28,0,7.54-5.77-1.87-8.66-7.54-8.65l-11.31,2.88q0-19.83,28.92-27.41h5l1.26,1.44v2.89l-8.8,8.65h1.26a25.62,25.62,0,0,0,16.35-8.65q20.12,11.9,20.12,31.74V3650q0,59.16-41.51,191.89-18.85,102.8-31.43,154.38l-5,8.65q-3.15,0-5,11.55-13.54,15.87-31.44,15.87l-1.27-1.45,1.27-1.44v-4.33q-13.85-3.6-13.84-5.77l1.27-1.44h10q-.63-14.41-3.77-14.43l-34,4.33-1.26-1.44v-5.77l5-5.78h6.28V3992q-17.61-1.44-17.6-5.77v-2.89l2.5-2.88,1.27,1.44H1370v-1.44q-16.35-35.36-34-116.87l-28.92-128.41v-1.44q0-2.52,8.8-5.77v-4.33l-2.51-2.89-8.81,4.33-2.5-2.88q-8.51,24.53-25.16,103.88-7.54,18.75-13.83,27.41l1.26,17.31a68.77,68.77,0,0,1-13.83,41.84q0,70.35-32.7,108.21-11.33,8.67-28.92,8.66-36.78,0-50.3-76.47l-1.25-10.1q10.38-5.76,17.59-5.77,0-4.68-20.11-7.21l-1.26-1.44v-2.89l2.52-2.89h2.51l22.64,4.33h1.25v-1.44q-11.32-6.14-11.32-15.87l6.3-2.89V3904h-6.3l-1.25-1.44h-1.25l-2.52,4.32,1.25,13-1.25,1.44H1145q-17.6,0-17.61-34.63l1.27-1.44h1.25l11.32,2.89h1.25l6.3-1.45q-4.73-7.2-16.35-7.21l-6.29,1.44q-5-6.84-7.55-28.85l1.26-1.45,3.77,2.89,15.09-5.77-3.77-4.33v-1.44q-11,5.78-16.35,5.77-2.19,0-6.28-28.86-10.07-23.07-10.06-41.84,3.13-10.09,7.54-10.1l-2.52-5.77-8.79,2.89-6.3-34.63v-5.77c1.27-3.84,4.61-5.77,10.07-5.77v-1.45q-10.38,0-17.61-10.1v-2.88c0-1.92,1.26-2.89,3.77-2.89l10.07,2.89,3.77-1.44v-1.45q-12.57,0-16.35-11.54-4.39-26.32-10.06-31.74l2.52-2.89h11.32v-1.44l-5-20.2-5-4.33,2.52-2.88,10.05,2.88v-1.44l1.27-4.33-1.27-1.44v-10.1Zm-7.55,28.85v1.45q0,2.52,10.07,13V3650l-2.52,4.32h1.26c4.18-1.2,6.28-2.64,6.28-4.32v-5.78q-6.29,0-6.28-10.1Zm18.87,66.37c-9.24,10.59-13.83,17.32-13.83,20.2h1.25q9.42-13,16.35-13h2.52c1.67,0,2.5,1.93,2.5,5.77h6.3l2.52-5.77Q1130.8,3707.73,1122.33,3700.51Zm5,62,5,5.78h1.25V3764q0-8.65,7.55-8.66l-1.25-1.44v-1.45Q1130.49,3755.35,1127.35,3762.55Zm11.32,56.27a21.92,21.92,0,0,1-6.28,15.87v1.45q7.23,0,17.6-17.32Zm5,44.73H1145l11.32-2.89h7.55v-2.88c-.85-2.89-3.36-4.33-7.55-4.33Q1143.7,3857.43,1143.7,3863.55Zm149.63-160.15h3.78q12.57-1.8,12.58-5.77v-1.44l-6.29-1.45Q1293.34,3698.36,1293.33,3703.4Zm67.92,189h12.57v-7.22l-2.52-2.88Q1365.63,3884.83,1361.25,3892.41Zm75.44,82.24,1.25,4.32c5.86,0,10.07-4.32,12.57-13h-1.25Q1436.69,3967.07,1436.69,3974.65Zm66.65-353.49-2.52,13,11.32,7.22c3.35-1.44,5-2.89,5-4.33q-9.42-5.42-11.32-10.1l1.27-1.44v-1.44Z"/><path class="cls-1" d="M1714.89,3661.18H1716q42.84,0,64.25,89.24,37.21,119,65.39,191.45,0,3.55-7.89,11.63v1.3l9-2.59h1.11q3.67,0,4.52,15.52,10.14,22,10.14,40.1l-3.38,2.59-6.76-7.76h-1.13v3.88q11.28,9.38,11.27,14.23-13.82,20.7-31.57,20.69-26.19,0-48.46-76.31l-3.39-16.82-5.64,1.29-85.67-1.29h-35q-11,7.13-25.92,71.14-10.44,23.3-24.8,23.29h-3.38q-25.1,0-35-33.64V4004q0-17.77,38.34-109.95,40.59-130.3,56.36-159.09h18q0-3.57-16.92-6.48v-1.29q0-44.29,42.83-64.68Zm-3.38,81.48q-7,32.34-15.78,32.34l-2.25,7.76,6.75-6.46,1.14,1.29v1.29q0,8.09-11.28,12.93l1.13,1.3v11.64q0,16.5-23.68,80.2l-1.13,6.47H1760q0-5.51-24.8-76.32l-2.25-15.52v-14.23q-11.3-6.79-11.28-16.82v-3.88l1.12-6.46q-6.75,0-10.14-15.53Zm-34.94,166.87c2.81,2.58,5.44,3.88,7.88,3.88q0-7.44,6.77-14.23H1689Q1681.06,3899.18,1676.57,3909.53Z"/><path class="cls-1" d="M1933.84,3659.88q38.33,6.47,38.33,32.34,34.38,46.56,93.56,157.81,21.43,36.21,41.71,64.67V3741.37q0-72.43,6.78-72.44,9-7.75,16.91-7.75h5.63q24.22,0,31.57,28.45l-3.38,33.63,5.64,235.42q0,57.89-10.16,68.55-14.08,15.53-30.44,15.53-22.54,0-42.83-33.64-40.3-63.37-95.83-174.62v-3.88h3.39v-1.29q-12.42,0-32.69-40.1h-1.13l-3.39,33.63,5.64,135.82v7.76q0,55.95-20.28,72.44l-10.16,2.58h-7.89q-23.1,0-25.93-37.51v-3.88l4.52-67.26q-4.53-74-4.52-175.92l1.13-71.14q16.07-13.26,24.8-24.57Zm98.09,170.74v3.88l2.25,2.59c.56-4.31,1.68-6.47,3.38-6.47h2.25l7.89,2.59h1.14v-1.29c-3.78,0-6.4-4.74-7.91-14.23Z"/><path class="cls-1" d="M2279.33,3666.34l82.29,5.18,16.91-1.29,1.14,1.29-1.14,6.47v3.88q0,28.46,21.43,28.46l1.12,1.29v1.29l-3.38,2.59h-3.38l-18-2.59c-4.5.43-6.77,1.73-6.77,3.89,8.28,1.93,12.41,3.66,12.41,5.16v7.77h6.77c.55-4.31,1.68-6.47,3.37-6.47h2.26q3.66,0,24.81,18.11h1.11q13.55-5.49,13.53-19.41v-1.28q-12.12,5.18-22.55,5.17h-1.12q-8.74,0-11.27-6.47,26.22-24.57,30.44-24.58l20.29,23.28a40.39,40.39,0,0,1,7.89,22q9.57,0,20.3,46.57,5.61,32,5.64,51.74l-24.82,10.35c0,1.73,1.13,2.59,3.39,2.59l9-3.88h2.25l2.25,2.59v7.76q-3.37,6.47-7.89,6.47v2.58l3.39,1.3,11.27-3.88v2.58l-4.5,6.47q4.5.64,4.5,3.88v6.46q0,87.33-65.39,130.65-25.64,18.12-119.5,18.11-14.94,3.89-34.94,3.88H2250q-36.06,0-36.07-23.29c-1.51,0-3-5.17-4.51-15.51l1.14-1.3h1.12c1.13,3.45,2.25,5.18,3.38,5.18h2.25c1.51,0,2.26-1.3,2.26-3.88-.38-7.77-1.12-11.65-2.26-11.65-3,.87-4.5,2.59-4.5,5.18h-2.25l-2.27-9.06v-2.58q0-7.77,6.77-32.34,0-3.89-4.5-3.89v-1.28l3.37-5.18h-3.37v-2.59q1.68-12.93,10.14-12.93h1.13q0,15.52,13.53,15.52h1.12v-1.29q-7.9-11.64-7.89-16.82c0-2.59,2.62-3.88,7.89-3.88l-2.26-2.59-21.41,7.76h-1.13l-2.26-2.58v-3.88c0-1.73,3-3,9-3.88v-1.3l-9-3.88,1.14-34.93-1.14-156.51v-15.52l9-11.64,10.14,2.59v-3.88q0-2.91-7.89-5.18V3678Q2246.63,3666.35,2279.33,3666.34Zm-49.6,344.08-2.25,7.76h1.12l13.52,1.29,2.26-3.87h-1.12l-6.77,1.28q-5.64-2.25-5.64-6.46Zm9-147.46,1.12,1.3v1.28l13.53-1.28,10.15,2.58v-1.3c1.49-3.44,3.37-5.17,5.64-5.17l-2.27-2.58A83.05,83.05,0,0,0,2238.75,3863Zm0,144.87v2.59q15.48,0,25.92,9h1.14c1.49,0,2.25-2.15,2.25-6.47l1.13-1.28h1.12q4.23,2.58,10.15,15.51h5.63l-1.12-6.46,9-9.05a275.46,275.46,0,0,0-48.48-3.89Zm6.76-100.89v1.29l7.89,3.88v2.59h-5.64q-6.75.66-6.75,3.88v2.59q25.92,0,25.91-11.64v-1.3l-7.89-1.29Zm0,68.55v1.3q0,11.64,9,11.64h2.25q0-7.75-10.14-12.94Zm68.76-248.35-39.44-1.29-6.77,1.29q7.89,16.5,7.89,42.69v10.35q0,27.17-7.89,37.51c4.5,3.44,6.77,7.76,6.77,12.93v5.18a24.55,24.55,0,0,1-5.64,15.52c4.5,1.73,6.76,5.17,6.76,10.35q0,9-5.64,9a78.12,78.12,0,0,1,4.52,25.87v9.06a139.56,139.56,0,0,1-4.52,33.62q5.64,3.57,5.64,7.77l-1.12,22,3.37,7.76,13.52-1.3H2312q12.39,0,21.42,5.18l-1.12,3.88c1.12,5.17,3.76,7.76,7.89,7.76h1.13l2.25-2.59-4.52-5.17V3982l1.14-1.29v-1.29L2347,3982v-1.29l-1.14-6.47,14.66-1.29q5.64,1,5.64,3.88v1.29c0,1.73-1.13,2.59-3.39,2.59l-5.63-2.59v2.59l14.66,6.47c.94-8.62,2.43-12.94,4.5-12.94h9v-2.59c4.88-2.15,7.52-4.3,7.89-6.46q-9,0-9-3.88V3960l1.13-1.29v-1.3l1.12,1.3h1.13l7.89-1.3q0-3.23-4.5-3.88v-2.58q27-37.85,27-89.25l-1.13-5.18,1.13-1.29,1.14,1.29h4.5l3.38-3.88-9-1.29v-2.59h6.77q-5.66-5.82-10.15-33.63l7.89-2.59v-5.17q-11.28-4.2-11.28-12.93,2.82-10.35,5.64-10.35,5.37,5.18,9,5.17v-1.29c0-5.18-2.62-7.76-7.89-7.76h-1.13l-7.89,2.58q-7-24.24-31.56-42.69-20.31-11.64-30.43-11.64l-4.52,1.3h-3.39q-3.37,0-3.37-9.05Q2327,3727.14,2314.27,3727.14Zm-25.92,278.11,5.64,1.29,4.5-1.29h1.14l2.25,2.58v3.89l-1.13,1.28v1.3l15.79-3.88v-1.3q-7.9,0-7.9-7.75l-5.64-3.88Q2296,3997.49,2288.35,4005.25Zm2.26-307.86V3700H2294q7,0,13.53-10.35h-2.26ZM2312,3992.31h1.13l5.64-1.29q7.32,0,10.14,19.4h1.14l2.25-2.59h6.75l1.14,1.29,3.38-1.29v-1.29q0-1.93-15.79-11.64v-1.3l1.13-6.46-5.64-1.3h-7.88Q2312.88,3985.84,2312,3992.31Zm54.12,25.87-5.64-1.3-1.13,1.3,2.25,5.17q16.92-2.25,16.91-7.75V4013Q2371.78,4018.19,2366.14,4018.18Zm-2.27-20.69v1.29l28.19-2.59-2.25-5.17Q2363.88,3992.64,2363.87,3997.49Zm69.9-53H2436q9.57,0,13.52-7.76h-2.26Q2434.05,3940.91,2433.77,3944.45Z"/><path class="cls-1" d="M2716.13,3665.05q36.93,1.63,42.85,14.23v1.29l-2.26,2.59-5.63-3.88h-2.25v2.59q2.79,20.7,13.52,20.7v1.29q-4.52,23.28-36.07,23.28l-45.1-1.29v-2.59c3,0,4.5-1.72,4.5-5.18h-1.11a42,42,0,0,1-24.8,7.77h-2.27l-51.85-3.89q-19.17,0-19.17,9.06l2.26,31.05q0,11.64-9,11.64,6.78,13.58,6.77,25.87,0,9.69-11.27,34.92h1.13q7.32,0,13.53-20.7l1.12-1.29h6.77q9.86,0,32.69,7.76l10.15-2.58V3819l-1.13,3.88,12.41,10.35v2.59l-1.14,1.29v1.29l1.14,1.3h2.25q2,0,5.64-10.35H2662V3828q-9.32-3.87-16.91-3.88v-2.58q30.43-10.35,53-10.35,34.68,0,48.47,18.11a25.3,25.3,0,0,1,4.52,14.23v1.29q0,25.88-29.32,25.87h-12.39l-2.26-2.58v-1.3q0-6.8,10.14-18.11H2715q-14.66,3.24-14.66,12.94l1.14,7.75v1.3l-23.68-2.58-66.52,2.58h-21.41l-2.25,2.59V3885l-4.52,5.17-7.89-7.76h-3.39q-5.62,5.51-5.63,11.64l2.26,2.59v1.29q-11.85,5.17-30.45,7.77l-15.78-2.59v-1.3l2.26-14.22-3.38-19.4v-7.77l1.12-1.29v-1.29l7.89,1.29h2.25c3.21,0,7-8.19,11.28-24.58l6.77-1.29,12.41,5.17c3-4.53,4.5-8.4,4.5-11.64v-3.88q0-12.62-13.53-18.11h-1.13V3806c2.82.22,5.07,1.95,6.77,5.18,0,1.73-2.25,2.58-6.77,2.58v1.3l5.64,6.47v1.29q-7.61,0-28.19,28.46H2529l-7.89-3.88,1.12-15.52v-32.34l-1.12-72.44q.57-3.87,11.26-10.34v-3.89l-10.14-9,2.26-2.59H2529l12.4,5.18,4.52-2.59c0-2.15-2.27-4.75-6.78-7.76l-1.13,1.29h-10.14q-2.82,0-3.38-5.17,9.59-25.87,38.34-25.88h14.64q16.35,0,39.46,6.47a42.11,42.11,0,0,1,22.55-6.47q5.07,0,19.16,6.47,6.77,0,6.77-5.17h2.25q3.66,10.35,11.28,10.35h3.38l2.26-2.59-5.64-3.88v-2.59Q2700.35,3665,2716.13,3665.05Zm-136.41,232.83h5.64l2.27,2.59v25.87q0,28.14-6.77,33.63,4.48,15.53,16.91,15.52,32.11,0,45.09,6.47c.94-3.44,4.31-5.17,10.14-5.17h4.51l18,2.59v-1.3l3.39-5.17h33.82q45.36,0,56.36,22l1.13,6.47q0,36.21-42.84,36.21h-15.78q-24.81,0-64.26-7.76a166.5,166.5,0,0,1-46.22,6.47h-20.29q-55.23,0-55.24-22-4.51-25.22-4.51-40.1v-16.82a114.85,114.85,0,0,1,5.64-34.92l-5.64-6.47v-6.46l1.12-1.3v-1.29q5.08,2.59,14.66,2.59h11.28Q2571.54,3909.53,2579.72,3897.88Zm-42.83-218.6H2538l28.19,1.29,5.63-1.29V3678l-20.28-5.18Q2541.4,3672.81,2536.89,3679.28Zm4.51,284.57h1.13q12.39,0,16.91-22Q2541.39,3941.87,2541.4,3963.85Zm2.25-243.17v5.17q0,3.24,10.15,6.46l-1.13-11.63-1.12,1.28h-1.13Zm15.79,128.05h-2.25v1.3l-1.13,19.39,7.88,3.89v-6.47l1.14-1.3v-1.28l11.27,2.58v-1.3l-2.26-6.46,1.13-1.29h1.13l12.4,1.29q5.07-2.58,5.63-5.17v-2.59h-9q-4.5-2.27-4.5-9.06,9-1.28,9-3.88l-5.64-3.88Q2565.93,3848.73,2559.44,3848.73Zm15.78-1.29,1.13,1.29v5.18c-.76,2.58-3,3.88-6.77,3.88h-9v-2.59A16.91,16.91,0,0,1,2575.22,3847.44Zm4.5,148.75v1.3l2.27,3.88v7.75l-4.52,6.48,1.13,1.28q3.39,0,13.53-19.39l-9-2.59Zm44-300.09v1.29q4.5,0,5.64,10.35c5.25,0,9.77-2.59,13.52-7.76v-1.3h-1.13v2.59h-2.25q0-6.46-3.39-6.47h-6.75Zm34.94-19.41-2.25,3.88v1.3l14.66,3.88,2.25-2.59v-1.29Zm-2.25,166.87v1.29q7.61,0,9,5.18l-2.26,11.64V3863h1.13q11.28-2.91,11.27-11.64h-1.13l-14.64-9.06Zm48.47,172q6.19,11.63,9,12.93h3.38v-1.3l-2.25-3.88v-9h-4.52Z"/><path class="cls-1" d="M2885.2,3658.58q117.8,0,139.79,24.58,37.2,31.38,37.2,71.14v9.06q0,49.16-32.69,76.32c-.94,4.31-2.08,6.46-3.39,6.46H3025l-7.89-11.64q-9.88,27.16-20.29,27.17l-3.39-5.18h-2.25q-2.27,0-4.52,10.35,50.47,51.73,62,86.66l1.13,3.88v3.89L3043,3969q0,3.55,15.8,6.46l2.25,3.89v3.88h-3.39v1.29q11.28,15.85,11.28,25.87v1.3q0,9.69-19.17,12.93l-12.4,6.46-2.26-9.05h-5.63l-7.89,11.64q-9-4.51-9-6.47l2.25-3.88q-14.65-9-14.65-16.81l1.12-5.17q-15.79-5.17-15.78-23.29v-2.59q0-9,11.28-15.52h-3.39l-14.66,5.18q0-3.89-29.3-49.16v-2.58l1.12-1.3h1.13l6.77,1.3h1.12v-3.88q-4.79,0-38.33-25.88-16.91-10.67-33.82-11.63-19.17,0-19.16,7.75l-2.25,16.82,2.25,63.38v6.47h-1.14l-4.5-1.29q-4.52,0-7.89,11.64l1.12,5.17q-15.77,5.51-18,9.06l1.13,1.29v1.29c3.75-1.5,5.64-3.66,5.64-6.46h1.12l11.27,14.23c6.77.21,10.14,1.51,10.14,3.88q-6.75,6.15-6.75,16.81-11.83,0-25.93,12.94l-7.89,2.58c-6-1.07-9-2.79-9-5.17s2.64-4.09,7.89-5.18v-3.88h-1.12l-9,7.76q-13.53-8.07-13.52-32.33l20.29-11.64v-1.3l-3.38-1.29q-8.74,2.6-14.66,11.64c-1.51,0-2.63-3-3.39-9.05l1.14-19.41,2.25-2.58,10.14,3.88,3.38-1.3v-3.88q0-3.55-10.14-6.47l-4.5,1.3-2.27-7.76c.76-8.62,1.88-12.93,3.39-12.93l-2.25-18.12v-40.1q0-2.25,10.14-5.17c0-1.5-3.37-2.8-10.14-3.88l1.13-9-2.27-81.49,2.27-6.47,21.41,5.17v-1.29l-2.25-9.06h-1.13l-3.39,2.59-2.25-3.88V3766l12.41-10.35q-10.15,0-10.16-12.94h-1.11a18.14,18.14,0,0,1-11.28,3.88v3.88q7.88,7.44,7.89,12.94c0,1.29-2.64,3.45-7.89,6.47q-2.82,0-4.52-20.7,0-9.71,5.64-15.52-5.64-10.35-5.64-18.11v-7.76q4.79-46.57,40.6-46.56Q2855.6,3658.59,2885.2,3658.58Zm-80,278.11,5.64,6.46,2.25-2.58q-2.27-5.82-4.5-6.47h-1.14Zm12.39-126.77c.94,4.32,2.08,6.47,3.39,6.47l10.14-11.64-9-1.29C2820,3803.67,2818.49,3805.83,2817.55,3809.92Zm12.41,185q0,9-11.27,9v5.17h1.12l11.27-3.87,2.27,6.47q3.38-1.3,3.37-7.77,0-5.17-5.64-9Zm-7.89-207v1.29l1.12-1.29h1.13l22.55-1.3q-4.51-5.17-4.52-9h-2.25Q2822.07,3783.1,2822.07,3787.94Zm7.89-45.28q2.53,7.77,6.76,9.06,0-12.28,10.15-24.58h-2.25Q2834.74,3727.14,2830,3742.66ZM2835.6,3894v1.3q4.5,10,9,12.93l1.12-1.29h1.13l-2.25-7.76V3894Zm7.89,117.72,11.27,3.88h1.12v-6.48l-2.25-2.58h-2.25C2847.44,4006.54,2844.8,4008.26,2843.49,4011.72ZM2867.15,3722l1.14,6.47q-.86,21.68-5.64,33.64c2.25,0,3.39,1.72,3.39,5.17l-1.14,14.23,2.25,7.76q-5.62,1.62-5.63,3.88,6.78,20.37,6.77,28.46h1.13l58.62-1.3q15.48,0,23.67,10.35-5.64,9.06-12.41,9.06h-3.37l-1.13-1.3h-1.12V3841q1.13,23.28,5.62,23.29h3.39c5.46,0,8.45-2.59,9-7.77h-2.25l-5.64,5.18-2.25-2.59v-3.88h4.5v-12.94c0-1.72,1.14-2.58,3.39-2.58q6.2,0,7.89,15.52l16.91,1.29q5.91,0,9-6.46Q2972,3850,2972,3841v-3.88q-7.05,6.48-11.28,6.47c-3.38-1.73-5.26-3.45-5.63-5.18v-2.58l2.25-2.59h3.38l10.14,2.59v-1.3l-3.38-3.88H2955.1v-1.29l1.11-3.88h-1.11l-3.39-3.88v-1.3l2.25-2.58,18.05,5.17c3.38-1.73,5.25-3.45,5.63-5.17h-9v-3.89l14.66-7.76h1.12l5.64,1.3V3806q3.38-38.79,10.15-53-13.53-7.11-13.54-19.4-13.8-10-80-18.11v-5.17h-1.11Q2905.5,3717.11,2867.15,3722Zm101.47-2.58,13.53,1.3,3.38-1.3q-.57-3.87-9-3.88H2972Zm11.28-25.87-2.26,3.88v1.29q4.23,0,12.4,6.47a6.65,6.65,0,0,0,4.52-5.17Zm11.27,23.29v1.28q19.15,4.86,19.16,15.53c7.15-4.31,12-6.47,14.66-6.47l-6.77-20.69Q3013.44,3711.63,2991.17,3716.8Zm39.46,91.84,4.5,5.16h1.14l-1.14-1.29v-1.29q0-7.11,15.78-11.64l1.14-1.29V3797h-1.14Q3041.63,3797,3030.63,3808.64Z"/><path class="cls-1" d="M3241.92,3608.17H3262q123.55,0,164.73,99.56v4.33l-5,5.77q0,4,12.57,8.65,12.57,39.33,12.57,88,0,114.36-55.33,176-13.2,13-18.86,13-23.55-7.22-39-7.21l-5,1.44,1.27,1.44v2.89l-2.52,4.33v1.44l2.52,2.88h6.28v1.45q-11,21.65-54.06,21.64-88-8.3-96.83-23.09v-2.88l1.25-4.33h-1.25q-16.66,0-51.56-38.95-36.48-59.52-36.46-134.18v-14.43q0-110.73,65.38-176,31.74-27.4,69.17-27.42l1.25,1.45v1.44q0,6.86-10,15.87v2.88h1.25q13.83,0,13.82-23.08Zm-135.8,186.13,17.6,7.21,1.26-1.44v-1.45q-4.08,0-13.83-10.1h-1.26Q3108,3788.52,3106.12,3794.3Zm39,11.54q0,3.24-5,7.21l-1.25,4.33,1.25,1.44h13.84l2.52-2.88-10.07-10.1Zm25.15,14.43q0,31.38,8.79,67.81l-1.25,1.44H3169q-13.2,0-28.93,17.31h1.27l40.23-14.42,10.07,24.52v1.45l-2.52,10.1q60.66,41.83,110.65,41.84,0-14.79,21.37-17.32l5,2.89q0-15.51,28.91-34.63l-1.25-1.44v-4.33q0-22,21.37-33.18v-1.45c-3.36,0-5-1.92-5-5.77l2.51-27.41V3839l-5-79.35,2.52-17.32h-2.52l-7.54,2.89q-26.09-70.69-88-70.7h-1.25q-67,0-90.54,77.91A242.36,242.36,0,0,0,3170.25,3820.27Zm-5-144.28h1.25q15.11,0,15.09-10.1h-3.77Q3170.88,3665.89,3165.22,3676Zm93-51.94v13h8.82c4.6,0,7.54-1.92,8.79-5.77v-2.89c-.83-2.88-3.35-4.32-7.54-4.32Zm98.08,363.58v1.44l1.27-1.44h2.51l10.06,2.89h2.51v-4.33l-2.51-2.89h-6.29Q3356.35,3984,3356.34,3987.63ZM3374,3725l12.57,5.77,17.59-7.21v-1.44l-17.59-2.89Q3374,3720.35,3374,3725Z"/><path class="cls-1" d="M3515.81,3659.88q38.31,6.47,38.32,32.34,34.39,46.56,93.57,157.81,21.42,36.21,41.71,64.67V3741.37q0-72.43,6.77-72.44,9-7.75,16.91-7.75h5.64q24.22,0,31.57,28.45l-3.39,33.63,5.64,235.42q0,57.89-10.15,68.55-14.1,15.53-30.44,15.53-22.55,0-42.83-33.64-40.32-63.37-95.83-174.62v-3.88h3.38v-1.29q-12.41,0-32.69-40.1h-1.13l-3.39,33.63,5.64,135.82v7.76q0,55.95-20.28,72.44l-10.16,2.58h-7.88q-23.11,0-25.94-37.51v-3.88l4.52-67.26q-4.51-74-4.52-175.92l1.14-71.14q16.05-13.26,24.8-24.57Zm98.08,170.74v3.88l2.25,2.59c.57-4.31,1.69-6.47,3.39-6.47h2.25l7.89,2.59h1.13v-1.29q-5.65,0-7.9-14.23Z"/><path class="cls-1" d="M2414.71,3419.27V2228.4l-5.16-.37c-7.44,40.21-14.3,80.5-22.4,120.62-41.32,204.63-113.19,400.74-246.33,578.93-74,99-165.39,184.68-291.92,241.33-9.88,4.43-20.06,8.41-30.16,12.51s-20.12,8-33.59,13.41c79.9,82.43,157.87,163.38,270,224.69H1407.34c17.09-50.44,36.78-100.84,50.89-152.28,14.25-52,14.78-105.21,9-164.32-34.44,28.55-61.85,55.35-94.2,77.24-66.86,45.23-136.61,87.58-204.47,131.85-9.22,6-17.72,15.48-20.76,24.64-7.75,23.3-11.53,47.45-18.44,71-1.76,6-9.23,10.84-14.08,16.22-5-5.16-13-9.77-14.62-15.57-10.52-38.17-20.69-76.47-28.22-115.08-1.23-6.35,9.33-18.64,17.53-21,26.6-7.72,52.72-5.31,73.34,14.52,108.73-58.66,206.29-126.56,291.24-206.4,4.7-4.42,6.22-12.9,5.4-19.16-2-15.49-6.26-30.78-9.8-47.06q719.93-297.9,964.08-930.24c22.3,49.78,41.81,98.67,65.79,146,160.26,316.58,422.39,560.23,783.56,732.35,31.87,15.19,64.63,29.27,97.89,42.3,14.56,5.71,20.72,12.25,14.64,24.52-15.95,32.17-1.4,55,27.22,78.54,76.25,62.79,156.94,120.81,246.56,170.36,5,2.76,10.25,5.17,16.1,8.11,20.88-18.69,46.86-21.62,73.73-14,8,2.27,18.81,13.52,17.64,19.17-8.41,40.66-19.39,81-30.16,121.29-1.15,4.3-6.21,7.9-13.25,16.41-6.13-10.32-11.81-16.85-14-24.09-8.5-28.22-7.5-61.35-26.06-83.72s-58.36-32.33-85.3-51.13c-69.29-48.38-136.74-98.56-204.56-148.35-6.11-4.48-9.6-11.36-17.54-15.22-15.48,109.71,7.22,212.43,61.85,312.83Z"/><path class="cls-1" d="M2282.12,1114l-83.44,7.76s-28.32,12.87-37.76,40.34c0,0-6,20.6,0,29.18s-1-2.17-1-2.17,6.16,9,4.44,14.19a98.06,98.06,0,0,1-9.15,18.71s-36.28,50.79,12.7,103.85c0,0,29.93,33.11,58,41.27l19.05,22.73s19.74,68.51,9.51,109.41c0,0-5.11,116.56,9.2,143.15,1.85,3.43,3.18,5.89,4.11,7.57,6.25,11.38-6.21-12.66-6.21-12.66l49.14-12.29s-14.55-40.51-11.21-66.66c0,0,13.34-47.27,13.9-52.28s4.45-31.15,0-47.83c0,0,49.5,29.48,56.73,91.77l5.56,21.14,2.79,13.35,50.05-31.15-11.68-65.08s-6.12-21.69-17.8-34.48l-53.39-77.87s1.39-31.44-5.56-47.39c0,0-9.82-28.22-3.68-41.3,0,0,10.89-23.93,10.06-38,0,0,16.33-30,26.69-38.32a12,12,0,0,1,2.81-1.76c8.86-3.62,5.06-8,1.26-13.05-.43-.57-.85-1.15-1.26-1.75-4-5.83-11.5-15.37-11.5-15.37s-6.52-10.9-12.25-.9c-.24.43-.48.9-.71,1.4-4.83,10.71-7.86,4.57-8.83.18a15.41,15.41,0,0,1-.29-1.77c-.34-3.43.22-19.43-2.76-26.74a7.9,7.9,0,0,0-1.63-2.68c-4.8-4.8,3.2-8.8-9.6-12,0,0-4.09-4.85-3.3-10l1.59-5.15s2.84-1.13,7.2.46Z"/><path class="cls-1" d="M2281.74,1109.83s2.24-7.62,1.79-13.9h0s-8.51-11.2-9.41-21.06,2.37,8.72,2.37,8.72-6.9-16.79-2.62-28c0,0,5.63-25.55,28.49-26,0,0,31.37-.9,38.09,9,0,0,16.14,10.31,12.55,21.52s-2.35,2-2.35,2-.27,10.53-2.25,16.88c0,0,5.36,11.34,5.12,15.39-.1,1.83-3,4.4-7.37,3.6l-1.43,4.61-4.65.19,4.1,4.09s1.85,1.38-.93,3c0,0-3.57,0-2.77,4.39,0,0,4.42,9.37-9.54,7.41l-5.93.27-45.29-7.46Z"/><path class="cls-1" d="M2362.33,1180.8s1.41-11.06,3.07-14.33c.95-1.87,6.12-6.88,8.41,0l5.74-6.12s-.63-3.89,0-5c1.75-3,8.79-5,13.76,1.91,0,0,7.21,12.59,6.88,17.21-.16,2.31-4.58,8-4.58,8l-3.83,4.59-16.69,10.81"/><polyline class="cls-1" points="2377.57 1164.91 2335.78 1145.54 2322.83 1136.64 2323.82 1132.79 2390.03 1161"/><path class="cls-1" d="M2391.36,1187s12,10.61,4.92,16.46l6.15-7.07,4.28,3.31s-7.94-19.26-9.18-20.71-9.19,0-9.19,0Z"/></svg>